<?xml version="1.0" standalone="no"?>
<!DOCTYPE svg PUBLIC "-//W3C//DTD SVG 20010904//EN"
 "http://www.w3.org/TR/2001/REC-SVG-20010904/DTD/svg10.dtd">
<svg version="1.0" xmlns="http://www.w3.org/2000/svg"
 width="512.000000pt" height="512.000000pt" viewBox="0 0 512.000000 512.000000"
 preserveAspectRatio="xMidYMid meet">

<g transform="translate(0.000000,512.000000) scale(0.100000,-0.100000)"
fill="#000000" stroke="none">
<path d="M251 5109 c-89 -17 -182 -95 -225 -188 l-21 -46 0 -2315 0 -2315 22
-47 c30 -66 96 -133 162 -165 l56 -28 2315 0 2315 0 56 28 c66 32 132 99 162
165 l22 47 0 2315 0 2315 -28 56 c-32 66 -99 132 -165 162 l-47 22 -2290 1
c-1259 1 -2310 -2 -2334 -7z m1337 -984 c60 -33 110 -84 144 -147 19 -36 23
-58 23 -138 0 -86 -3 -100 -29 -148 -34 -60 -85 -111 -148 -144 -36 -19 -58
-23 -138 -23 -80 0 -102 4 -138 23 -63 33 -114 84 -148 144 -26 48 -29 62 -29
148 0 79 4 102 23 137 67 127 168 186 307 180 66 -3 90 -8 133 -32z m172
-1885 l0 -1120 -320 0 -320 0 0 1120 0 1120 320 0 320 0 0 -1120z m961 973 c0
-85 4 -137 8 -123 39 125 128 204 282 246 92 26 405 27 499 1 263 -71 406
-261 466 -618 15 -91 18 -198 21 -851 l4 -748 -320 0 -320 0 -3 688 -3 687
-26 55 c-33 70 -70 106 -139 138 -75 35 -220 37 -293 4 -78 -35 -104 -59 -139
-130 l-33 -67 -3 -687 -3 -688 -319 0 -320 0 0 1120 0 1120 320 0 320 0 1
-147z"/>
</g>
</svg>
